<svg xmlns="http://www.w3.org/2000/svg" viewBox="0 0 600 360" role="img" aria-label="Blanqueamiento dental">
  <defs>
    <linearGradient id="g4" x1="0" y1="0" x2="1" y2="1">
      <stop offset="0%" stop-color="#7f8fff"/>
      <stop offset="100%" stop-color="#f69fc9"/>
    </linearGradient>
  </defs>
  <rect width="600" height="360" fill="url(#g4)"/>
  <circle cx="90" cy="72" r="90" fill="#ffffff" fill-opacity="0.15"/>
  <path d="M300 88c52 0 94 42 94 94 0 69-28 120-72 157l-22 18-22-18c-44-37-72-88-72-157 0-52 42-94 94-94z" fill="#ffffff" fill-opacity="0.95"/>
  <path d="M300 133l10 24 25 2-19 16 6 25-22-13-22 13 6-25-19-16 25-2z" fill="#ffd76b"/>
  <text x="28" y="330" fill="#ffffff" font-size="34" font-family="Arial, sans-serif" font-weight="700">Blanqueamiento</text>
</svg>
